<?xml version="1.0" encoding="utf-8"?>
<!-- Generator: Adobe Illustrator 24.0.0, SVG Export Plug-In . SVG Version: 6.00 Build 0)  -->
<svg version="1.1" id="Layer_1" xmlns="http://www.w3.org/2000/svg" xmlns:xlink="http://www.w3.org/1999/xlink" x="0px" y="0px"
	 viewBox="0 0 1024 1024" style="enable-background:new 0 0 1024 1024;" xml:space="preserve">
<style type="text/css">
	.st0{fill:none;stroke:#000000;stroke-width:15;stroke-linejoin:round;stroke-miterlimit:10;}
</style>
<path class="st0" d="M417.1,633.6c-82.9,0-152.3-69.5-152.3-152.3v-77.4c0-82.9,69.5-152.3,152.3-152.3S569.4,321,569.4,403.8v77.4
	C569.4,564.1,500,633.6,417.1,633.6z M227.4,617.7c-26.8,0-122.9,34.7-122.9,64v40c0,26.8,24,50.8,50.8,50.8h523.6
	c26.8,0,50.8-24,50.8-50.8v-40c0-26.8-96.3-64-122.9-64"/>
<path class="st0" d="M532,299.6c13.7-4.9,28.2-7.5,43.3-7.5c72,0,132.5,60.4,132.5,132.5v67.3c0,43.3-21.9,82.6-55.1,106.9
	 M727.8,745.2h75.1c23.3,0,44.2-20.9,44.2-44.2v-34.8c0-23.3-83.7-55.7-106.9-55.7"/>
<path class="st0" d="M704.5,373c9.5-3.4,19.6-5.2,30.2-5.2c50.2,0,92.3,42.1,92.3,92.3V507c0,30.2-15.2,57.5-38.4,74.4 M840.9,683.4
	h52.3c16.2,0,30.8-14.5,30.8-30.8v-24.2c0-16.2-58.3-38.8-74.4-38.8"/>
</svg>
