<?xml version="1.0" encoding="utf-8"?>
<!-- Generator: Adobe Illustrator 25.0.0, SVG Export Plug-In . SVG Version: 6.00 Build 0)  -->
<svg version="1.1" id="Layer_1" xmlns="http://www.w3.org/2000/svg" xmlns:xlink="http://www.w3.org/1999/xlink" x="0px" y="0px"
	 viewBox="0 0 512 512" style="enable-background:new 0 0 512 512;" xml:space="preserve">
<style type="text/css">
	.st0{fill:#FFFFFF;}
</style>
<path class="st0" d="M355.3,36.3H156.6C93.8,36.3,42.9,87.2,42.9,150v212c0,62.8,50.9,113.7,113.7,113.7h198.8
	c62.8,0,113.7-50.9,113.6-113.7V150C469,87.2,418.1,36.3,355.3,36.3z M256,359.8c-57.3,0-103.8-46.5-103.8-103.8
	S198.7,152.2,256,152.2S359.8,198.7,359.8,256S313.3,359.8,256,359.8z M378.5,152.2c-10.3,0-18.7-8.4-18.7-18.7
	c0-10.3,8.4-18.7,18.7-18.7c10.3,0,18.7,8.4,18.7,18.7C397.2,143.8,388.8,152.2,378.5,152.2z"/>
</svg>
