<?xml version="1.0" encoding="utf-8"?>
<!-- Generator: Adobe Illustrator 25.2.1, SVG Export Plug-In . SVG Version: 6.00 Build 0)  -->
<svg version="1.1" id="Layer_1" xmlns="http://www.w3.org/2000/svg" xmlns:xlink="http://www.w3.org/1999/xlink" x="0px" y="0px"
	 viewBox="0 0 1024 1024" style="enable-background:new 0 0 1024 1024;" xml:space="preserve">
<style type="text/css">
	.st0{fill:none;stroke:#000000;stroke-width:20;stroke-miterlimit:10;}
	.st1{fill:none;stroke:#000000;stroke-width:20;stroke-linejoin:round;stroke-miterlimit:10;}
</style>
<circle class="st0" cx="512" cy="424.6" r="200"/>
<path class="st1" d="M513.8,434.3c2.3-0.3,4.5-0.8,6.8-1.2l15.5-3.5c0.4-0.1,2-0.5,2.4-0.7c1.2-0.5,2.1-1.2,2.7-1.8l7.8-6.9
	c1.5-1.2,3.1-2.7,4.4-4c1.2-1.2,2.2-2.4,3.3-3.6l9.1-10.8c1.5-1.8,1.7-4.3,0.5-6.3l-2.3-3.9l12.3-12.5c0.4-0.4,0.8-1,1.1-1.4
	c1.2-2.7,12.9-26.3,14.8-33.3c0.6-2.1-0.2-4.4-2-5.8c-1.7-1.3-4.2-1.5-6-0.4c-2.7,1.4-5.4,2.8-7.5,3.9c0-0.6,0-1.2,0.1-1.9
	c0.1-1-0.1-1.8-0.5-2.7c-5.5-11.8-6.9-12.9-7.9-13.6c-1.2-1-11.9-9.2-11.9-9.2c-1.2-0.9-2.5-1.2-3.8-1.2l-9.8,0.9l-6.1-2
	c-1.7-0.5-3.5-0.3-5.1,0.9c-1.4,1.2-2.2,2.8-2.2,4.6l1,22.9c-0.2,0.7-0.4,1.2-0.6,2c-4.7-3.5-10.6-8.1-10.7-8.2l-8.9-6.6l5.6-8
	l12.3-9.1c3.2-1.1,13.9-4.4,18.5-5.7c2.1-0.5,3.7-2.4,4.1-4.5c0.4-2.2-0.8-4.3-2.7-5.6l-16.1-9.7h21.4c3.1,0,5.6-2.5,5.6-5.6
	c0-2.5-0.8-3.3-4.6-6.7c-2.5-2.2-5.8-5.2-6.4-5.7c-4.1-7-10.7-7.5-16.1-8l-1.2-0.1c-100.3-11.6-152.1,65.6-152.5,66.3
	c-0.6,0.9-1,2-1,3c0,5.6,0,5.7,31.2,8.1l2.3,4.3c0.5,1,1.7,3.3,4,4.4c0.3,0.2,1.1,0.4,1.3,0.5c2.2,0.7,4.3,1.8,6.3,2.8
	c1.3,0.7,3,0.8,4.4,0.3c1.5-0.6,3.3-1.1,4.6-1.3c0.2,3.6-0.5,10-3.1,13.7c-5.9,8.2-6.7,19.2-6.7,20.1c0.1,2,0.2,4,0.4,6.4
	c0.2,2,0.3,4,0.5,5.9c0.2,1.2,0.4,2.2,0.5,3.4c0.2,1.2,0.5,3.2,2,5.1c0.7,0.9,1.4,1.5,2.4,2.4s1.9,1.8,3.1,3.1
	c0.5,0.5,1.2,1.2,1.5,2.7l1.1,5.9c0.5,2.8,1,5.7,1.5,8.5l0.4,1.9c0.2,1.2,0.6,2.9,1.9,4.5c0.7,0.9,1.5,1.4,3,2.6
	c3.4,2.5,6.8,5,10.2,7.5l7.1,6.2c6.6,20.8,9.6,22.3,11.4,23.2c0.8,0.4,2.7,1.3,5,2.6c10.6,5.7,14.5,7.7,16.9,7.7
	c1.1,0,1.8-0.4,2.7-1c0.2-0.1,13.2-10.8,10.7-18.4c-0.2-0.6-0.6-1.6-1.2-3c-1.8-4.3-6-14.6-4.4-20.6c0.4-1.2,1.9-2,2.6-2.2
	c1.8-0.8,3.9-1.2,6.8-1.3c0.7,0,1.3,0,2,0C511.2,434.4,512.6,434.4,513.8,434.3z"/>
<path class="st1" d="M581.9,458c-0.3-0.1-1.1-0.2-10.7,1.3c-0.5,0.1-0.9,0.3-1.2,0.7c-0.7,0.8-2.3,2.5-1.2,4.2l0,0l2.4,3.6
	c0.4,0.5,0.9,0.8,1.5,0.9c1,0.1,5.8,0.6,7,0.6c0.7,0,2.1,0,6-5c0.5-0.7,0.6-1.5,0.2-2.2C583.8,458.2,582.4,458.1,581.9,458z"/>
<path class="st1" d="M656.8,494.7c-1.9-1.4-3.8-1.5-4.5-1.6c-4-0.3-7.7,0.4-11,1l-1.7,0.3c-3.1,0.5-6.1,0.6-10.3,0.8
	c-8,0.3-16,0.7-23.9,1.4c-2.3,0.2-4.6,0.4-6.8,1.2c-0.2,0.1-20.4,9-22.4,13.5c-0.7,1.6-0.6,3.4,0.1,4.9l2.7,5.3
	c-0.4,0.4-0.8,0.8-1.2,1.1c-0.1,0.1-1,1-1.1,1.1c-1.6,1.8-3.1,3.7-4.6,5.6c-1,1.2-1.9,2.4-2.8,3.5c-5.8,6.8-10.4,11.7-15.3,16
	c-0.7,0.6-1.7,1.5-2.5,2.9c-3.5,6.3,3,12.2,5.1,14.1c6.7,6,12.9,9,18.8,9c0.9,0,1.8-0.1,2.7-0.2c20.5-3.1,36.9-15.6,47-25.6
	c9.6-9.5,18.5-20.7,26.4-33.4c1.3-2,2.6-4.2,4.5-7.4c1.2-1.6,2.5-3.6,3.1-5.8c0,0,0.3-1.7,0.3-1.8
	C659.6,498.8,658.3,495.8,656.8,494.7z"/>
<path class="st1" d="M560.4,488.5c0.7,0,1.3-0.2,1.7-0.4c0.5-0.2,1-0.4,1.7-0.7l1.2-0.6c0.5-0.3,0.9-0.5,1.3-0.6
	c1.1-0.4,1.9-1.6,1.8-2.7c-0.1-0.4-0.3-0.9-0.5-1.2l-0.4-0.6c-0.4-0.5-0.7-1-1.1-1.4c-0.5-0.5-0.7-0.8-0.8-1.1l-0.2-0.7
	c0-0.2-0.1-0.9-0.2-1.1c-0.3-0.9-0.8-1.6-1.6-2.2c-0.6-0.5-1.3-0.9-2-1.3l-0.8-0.5c-0.4-0.3-1.2-1.3-1.9-2.7
	c-0.9-1.8-3.8-3.2-5.4-3.8c-1.1-0.4-2.1-0.4-2.8-0.3l-1,0.1c-0.6,0.1-1.9,0.3-2.7,1.6c-0.7,1-0.8,2-0.8,3.2c0,0.3,0,0.7-0.1,0.9
	c-0.1,0.3-0.3,0.7-0.5,1c-0.3,0.4-0.5,0.9-0.7,1.3c-0.3,0.8-0.4,1.6-0.2,2.4c0,0.1,0,0.1,0.1,0.1c0.3,0.9,0.9,1.5,1.4,1.9
	c0.4,0.4,0.9,0.9,1.3,1.2c0.9,0.7,1.8,1.3,2.8,1.8l2.6,1.4c0.8,0.4,1.5,0.9,2.3,1.5c0.9,0.6,1.8,1.2,2.6,2c0.4,0.3,0.9,0.8,1.6,1.1
	C559.7,488.5,560.1,488.5,560.4,488.5z"/>
<path class="st1" d="M598.3,461.1c0.2,0,0.3,0,0.4-0.1l8.3-1c0.8-0.1,1.4-0.5,1.9-1l0.6-0.6c1.8-1.8,3.6-3.7,5.1-6l3.1-5
	c0.4-0.7,0.9-1.4,1.1-2.1c0.8-1.8,0.2-3.2-0.3-3.8c-0.7-0.9-2.4-1.5-3.7-1.4l-1.8,0.2c-4.1,0.4-8.2,0.6-12.2,0.9l-0.5,0.1
	c-1.5,0.1-2.7,1.2-3,2.7l-2.3,13.3c-0.2,1,0.2,2.1,0.9,2.8C596.6,460.7,597.4,461.1,598.3,461.1z"/>
<path class="st0" d="M769.6,949H254.4c-33.1,0-60-26.9-60-60V135c0-33.1,26.9-60,60-60h515.2c33.1,0,60,26.9,60,60v754
	C829.6,922.1,802.8,949,769.6,949z"/>
<g>
	<path d="M314.6,796.7c4.6,0,8.5,0.5,11.8,1.6s6,2.6,8.1,4.5s3.7,4.1,4.7,6.7c1,2.6,1.5,5.4,1.5,8.4c0,3.2-0.5,6.2-1.6,8.9
		c-1,2.7-2.6,5-4.8,6.9c-2.1,1.9-4.8,3.4-8.1,4.5c-3.3,1.1-7.2,1.6-11.6,1.6h-7.8v21.7h-15v-64.8L314.6,796.7L314.6,796.7z
		 M314.6,828.5c3.9,0,6.7-0.9,8.5-2.8c1.7-1.9,2.6-4.5,2.6-7.8c0-1.5-0.2-2.8-0.7-4c-0.4-1.2-1.1-2.3-2-3.1c-0.9-0.9-2-1.5-3.4-2
		s-3-0.7-4.9-0.7h-7.8v20.6h7.7V828.5z"/>
	<path d="M402,861.5h-11.7c-1.3,0-2.4-0.3-3.2-0.9c-0.8-0.6-1.4-1.4-1.8-2.3l-3.8-11.3h-24.6l-3.8,11.3c-0.3,0.8-0.9,1.6-1.8,2.2
		c-0.8,0.7-1.9,1-3.1,1h-11.7l25.1-64.8H377L402,861.5z M378.1,836.7l-6-17.8c-0.4-1.1-0.9-2.5-1.4-4s-1-3.2-1.5-5
		c-0.4,1.8-0.9,3.5-1.4,5s-1,2.9-1.4,4l-6,17.7L378.1,836.7L378.1,836.7z"/>
	<path d="M442.9,809.9c-0.4,0.7-0.9,1.2-1.4,1.6c-0.5,0.4-1.1,0.5-1.9,0.5c-0.7,0-1.4-0.2-2.2-0.6c-0.8-0.4-1.7-0.9-2.7-1.4
		s-2.1-1-3.4-1.4s-2.7-0.6-4.4-0.6c-2.8,0-4.9,0.6-6.3,1.8s-2.1,2.8-2.1,4.9c0,1.3,0.4,2.4,1.2,3.2c0.8,0.9,1.9,1.6,3.3,2.2
		c1.3,0.6,2.9,1.2,4.6,1.7s3.5,1.1,5.3,1.7c1.8,0.6,3.6,1.4,5.3,2.2c1.7,0.9,3.3,2,4.6,3.3c1.3,1.3,2.4,3,3.3,4.9
		c0.8,1.9,1.2,4.2,1.2,6.9c0,3-0.5,5.8-1.6,8.4c-1,2.6-2.5,4.9-4.5,6.8c-2,1.9-4.4,3.5-7.3,4.6s-6.2,1.7-9.9,1.7
		c-2,0-4.1-0.2-6.2-0.6c-2.1-0.4-4.1-1-6.1-1.8s-3.8-1.7-5.5-2.7s-3.2-2.2-4.5-3.5l4.4-7c0.4-0.5,0.8-0.9,1.4-1.3
		c0.6-0.3,1.2-0.5,1.9-0.5c0.9,0,1.8,0.3,2.7,0.8c0.9,0.6,1.9,1.2,3.1,1.9c1.1,0.7,2.5,1.3,3.9,1.9c1.5,0.6,3.2,0.8,5.2,0.8
		c2.7,0,4.8-0.6,6.4-1.8c1.5-1.2,2.3-3.1,2.3-5.7c0-1.5-0.4-2.7-1.2-3.7c-0.8-0.9-1.9-1.7-3.3-2.4c-1.4-0.6-2.9-1.2-4.6-1.6
		c-1.7-0.5-3.5-1-5.3-1.6s-3.6-1.3-5.3-2.1c-1.7-0.8-3.3-2-4.6-3.3c-1.4-1.4-2.4-3.1-3.3-5.2c-0.8-2.1-1.2-4.6-1.2-7.6
		c0-2.4,0.5-4.8,1.5-7.1s2.4-4.4,4.3-6.2s4.2-3.3,7-4.3c2.8-1.1,5.9-1.6,9.5-1.6c2,0,3.9,0.2,5.8,0.5s3.7,0.8,5.4,1.4
		c1.7,0.6,3.3,1.3,4.7,2.2s2.8,1.8,3.9,2.9L442.9,809.9z"/>
	<path d="M492.2,809.9c-0.4,0.7-0.9,1.2-1.4,1.6c-0.5,0.4-1.1,0.5-1.9,0.5c-0.7,0-1.4-0.2-2.2-0.6c-0.8-0.4-1.7-0.9-2.7-1.4
		s-2.1-1-3.4-1.4s-2.7-0.6-4.4-0.6c-2.8,0-4.9,0.6-6.3,1.8s-2.1,2.8-2.1,4.9c0,1.3,0.4,2.4,1.2,3.2c0.8,0.9,1.9,1.6,3.3,2.2
		c1.3,0.6,2.9,1.2,4.6,1.7s3.5,1.1,5.3,1.7c1.8,0.6,3.6,1.4,5.3,2.2c1.7,0.9,3.3,2,4.6,3.3c1.3,1.3,2.4,3,3.3,4.9
		c0.8,1.9,1.2,4.2,1.2,6.9c0,3-0.5,5.8-1.6,8.4c-1,2.6-2.5,4.9-4.5,6.8c-2,1.9-4.4,3.5-7.3,4.6s-6.2,1.7-9.9,1.7
		c-2,0-4.1-0.2-6.2-0.6c-2.1-0.4-4.1-1-6.1-1.8s-3.8-1.7-5.5-2.7s-3.2-2.2-4.5-3.5l4.4-7c0.4-0.5,0.8-0.9,1.4-1.3
		c0.6-0.3,1.2-0.5,1.9-0.5c0.9,0,1.8,0.3,2.7,0.8c0.9,0.6,1.9,1.2,3.1,1.9c1.1,0.7,2.5,1.3,3.9,1.9c1.5,0.6,3.2,0.8,5.2,0.8
		c2.7,0,4.8-0.6,6.4-1.8c1.5-1.2,2.3-3.1,2.3-5.7c0-1.5-0.4-2.7-1.2-3.7c-0.8-0.9-1.9-1.7-3.3-2.4c-1.4-0.6-2.9-1.2-4.6-1.6
		c-1.7-0.5-3.5-1-5.3-1.6s-3.6-1.3-5.3-2.1c-1.7-0.8-3.3-2-4.6-3.3c-1.4-1.4-2.4-3.1-3.3-5.2c-0.8-2.1-1.2-4.6-1.2-7.6
		c0-2.4,0.5-4.8,1.5-7.1s2.4-4.4,4.3-6.2s4.2-3.3,7-4.3c2.8-1.1,5.9-1.6,9.5-1.6c2,0,3.9,0.2,5.8,0.5s3.7,0.8,5.4,1.4
		c1.7,0.6,3.3,1.3,4.7,2.2c1.5,0.8,2.8,1.8,3.9,2.9L492.2,809.9z"/>
	<path d="M528.5,796.7c4.6,0,8.5,0.5,11.8,1.6s6,2.6,8.1,4.5s3.7,4.1,4.7,6.7s1.5,5.4,1.5,8.4c0,3.2-0.5,6.2-1.6,8.9
		c-1,2.7-2.6,5-4.8,6.9c-2.1,1.9-4.8,3.4-8.1,4.5s-7.2,1.6-11.6,1.6h-7.8v21.7h-15v-64.8L528.5,796.7L528.5,796.7z M528.5,828.5
		c3.9,0,6.7-0.9,8.5-2.8c1.7-1.9,2.6-4.5,2.6-7.8c0-1.5-0.2-2.8-0.7-4c-0.4-1.2-1.1-2.3-2-3.1c-0.9-0.9-2-1.5-3.4-2s-3-0.7-4.9-0.7
		h-7.8v20.6h7.7V828.5z"/>
	<path d="M625.9,829.1c0,4.7-0.8,9-2.4,13.1c-1.6,4-3.9,7.5-6.8,10.5c-2.9,3-6.5,5.3-10.6,7s-8.7,2.5-13.8,2.5
		c-5,0-9.6-0.8-13.8-2.5s-7.7-4-10.7-7s-5.2-6.5-6.9-10.5c-1.6-4-2.4-8.4-2.4-13.1s0.8-9,2.4-13.1c1.6-4,3.9-7.5,6.9-10.5
		s6.5-5.3,10.7-7s8.8-2.5,13.8-2.5s9.6,0.9,13.8,2.6c4.1,1.7,7.7,4,10.6,7c2.9,3,5.2,6.5,6.8,10.5S625.9,824.4,625.9,829.1z
		 M610.5,829.1c0-3.2-0.4-6.1-1.2-8.7c-0.8-2.6-2-4.7-3.6-6.5s-3.5-3.1-5.7-4.1c-2.3-0.9-4.8-1.4-7.7-1.4s-5.5,0.5-7.8,1.4
		s-4.2,2.3-5.7,4.1c-1.6,1.8-2.8,4-3.6,6.5c-0.8,2.6-1.2,5.5-1.2,8.7s0.4,6.1,1.2,8.7s2,4.7,3.6,6.5s3.5,3.1,5.7,4.1
		c2.3,0.9,4.9,1.4,7.8,1.4c2.9,0,5.4-0.5,7.7-1.4s4.2-2.3,5.7-4.1c1.6-1.8,2.8-4,3.6-6.5C610.1,835.2,610.5,832.3,610.5,829.1z"/>
	<path d="M687.8,861.5h-13.6c-2.5,0-4.3-0.9-5.4-2.8L658,839.9c-0.5-0.8-1.1-1.4-1.7-1.8c-0.6-0.4-1.5-0.6-2.7-0.6h-3.8v24h-15
		v-64.8h21.1c4.7,0,8.7,0.5,12,1.4c3.3,1,6,2.3,8.1,4s3.6,3.8,4.6,6.1c0.9,2.3,1.4,4.9,1.4,7.7c0,2.1-0.3,4.1-0.8,6
		c-0.6,1.9-1.4,3.6-2.5,5.2c-1.1,1.6-2.5,3-4.1,4.2s-3.5,2.3-5.6,3.1c1,0.5,1.9,1.1,2.8,1.9c0.9,0.8,1.6,1.7,2.3,2.7L687.8,861.5z
		 M655.8,827.2c2,0,3.8-0.3,5.2-0.8s2.6-1.2,3.5-2.2c0.9-0.9,1.6-2,2-3.2s0.6-2.6,0.6-4c0-2.8-0.9-5.1-2.8-6.7
		c-1.9-1.6-4.7-2.4-8.6-2.4h-6.1v19.2h6.2V827.2z"/>
	<path d="M738.5,808.6h-18.2v52.9h-15v-52.9H687v-11.9h51.5V808.6z"/>
</g>
</svg>
