<?xml version="1.0" encoding="utf-8"?>
<!-- Generator: Adobe Illustrator 25.2.1, SVG Export Plug-In . SVG Version: 6.00 Build 0)  -->
<svg version="1.1" id="Layer_1" xmlns="http://www.w3.org/2000/svg" xmlns:xlink="http://www.w3.org/1999/xlink" x="0px" y="0px"
	 viewBox="0 0 1024 1024" style="enable-background:new 0 0 1024 1024;" xml:space="preserve">
<style type="text/css">
	.st0{fill:none;stroke:#000000;stroke-width:15;stroke-miterlimit:10;}
</style>
<g>
	<path class="st0" d="M747.3,617.4c0-90.3-73.2-163.5-163.5-163.5c-90.3,0-163.5,73.2-163.5,163.5c0,53.2,25.9,103.2,69.5,133.8h188
		C721.4,720.6,747.3,670.6,747.3,617.4L747.3,617.4z"/>
	<path class="st0" d="M377.8,206.1c-0.5-20.3-17.1-36.4-37.4-36.4h-49.9c-20.3,0-36.8,16.2-37.4,36.4l23,138.1h78.6L377.8,206.1z"/>
	<path class="st0" d="M533.9,752.1h99.7v24.9h-99.7V752.1z"/>
	<path class="st0" d="M658.6,789.5c0,6.9-5.6,12.5-12.5,12.5H521.4c-6.9,0-12.5-5.6-12.5-12.5v-37.4H396.8v62.3
		c0,20.6,16.8,37.4,37.4,37.4h299.2c20.6,0,37.4-16.8,37.4-37.4v-62.3H658.6V789.5z"/>
	<path class="st0" d="M340.7,854.4h-51.5c-8.3,0-15-6.7-15-15V386.3c0-8.3,6.7-15,15-15h51.5c8.3,0,15,6.7,15,15v453.1
		C355.7,847.7,348.9,854.4,340.7,854.4z"/>
</g>
</svg>
