<?xml version="1.0" encoding="utf-8"?>
<!-- Generator: Adobe Illustrator 24.0.0, SVG Export Plug-In . SVG Version: 6.00 Build 0)  -->
<svg version="1.1" id="Layer_1" xmlns="http://www.w3.org/2000/svg" xmlns:xlink="http://www.w3.org/1999/xlink" x="0px" y="0px"
	 viewBox="0 0 1024 1024" style="enable-background:new 0 0 1024 1024;" xml:space="preserve">
<style type="text/css">
	.st0{fill:none;stroke:#000000;stroke-width:15;stroke-miterlimit:10;}
</style>
<g>
	<path class="st0" d="M566.8,260.1H463.6c-9.3,0-16.4-7.1-16.4-16.4v-27.6c0-9.3,7.1-16.4,16.4-16.4h103.2c9.3,0,16.4,7.1,16.4,16.4
		v27.6C583.2,252.6,575.9,260.1,566.8,260.1z"/>
	<path class="st0" d="M447.2,797H152.7c-15.2,0-27.8-12.6-27.8-27.8v-500c0-15.2,12.6-27.8,27.8-27.8h294.7"/>
	<path class="st0" d="M583.2,241.4h286.2c15.2,0,27.8,12.6,27.8,27.8v499.9c-0.2,15-12.8,27.6-28,27.6h-286"/>
	<rect x="252.2" y="532.5" class="st0" width="47.4" height="175.5"/>
	<path class="st0" d="M566.8,824.2H463.6c-9.3,0-16.4-7.1-16.4-16.4v-21.7c0-9.3,7.1-16.4,16.4-16.4h103.2c9.3,0,16.4,7.1,16.4,16.4
		v21.5C583.2,817.1,575.9,824.2,566.8,824.2z"/>
	<rect x="364.5" y="482.4" class="st0" width="47.4" height="225.6"/>
	<rect x="477" y="409.6" class="st0" width="47.4" height="298.6"/>
	<rect x="589.5" y="446.3" class="st0" width="47.4" height="261.9"/>
	<rect x="697.5" y="336.9" class="st0" width="47.4" height="371.1"/>
</g>
</svg>
