<?xml version="1.0" encoding="utf-8"?>
<!-- Generator: Adobe Illustrator 25.2.1, SVG Export Plug-In . SVG Version: 6.00 Build 0)  -->
<svg version="1.1" id="Layer_1" xmlns="http://www.w3.org/2000/svg" xmlns:xlink="http://www.w3.org/1999/xlink" x="0px" y="0px"
	 viewBox="0 0 1024 1024" style="enable-background:new 0 0 1024 1024;" xml:space="preserve">
<style type="text/css">
	.st0{fill:#FFFFFF;}
</style>
<path class="st0" d="M883,292.7C762.4,88.2,498.9,20,294.4,140.6S21.7,524.7,142.3,729.2L82,942.9l221.5-57.7
	c132.4,74.8,296.3,73.4,427.4-3.9C935.4,760.7,1003.6,497.2,883,292.7z M720.5,628.3l-3.9,22.3c-3.9,23.6-17,45.9-36.7,60.3
	c-27.5,19.7-64.2,24.9-95.7,13.1c-123.2-39.4-194-129.8-230.7-187.5c-36.8-57.6-51.2-114-42-161.2c6.5-26.2,19.6-49.8,39.3-68.2
	c5.3-6.6,14.4-9.2,22.3-9.2l26.2,1.3c5.2,0,9.1,3.9,11.9,11.8l38,100.9c1.3,5.2,1.3,10.5-2.6,15.7l-34.1,43.3
	c-2.6,3.9-3.9,9.2-1.3,13.1c28.8,64.3,82.6,114.1,148.1,141.6c5.2,1.3,9.2,0,11.8-3.9l35.4-51.1c3.9-6.5,10.4-7.8,17-5.2l89.1,45.9
	C719.2,615.2,721.8,621.7,720.5,628.3z"/>
</svg>
