<?xml version="1.0" encoding="utf-8"?>
<!-- Generator: Adobe Illustrator 24.0.0, SVG Export Plug-In . SVG Version: 6.00 Build 0)  -->
<svg version="1.1" id="Layer_1" xmlns="http://www.w3.org/2000/svg" xmlns:xlink="http://www.w3.org/1999/xlink" x="0px" y="0px"
	 viewBox="0 0 1024 1024" style="enable-background:new 0 0 1024 1024;" xml:space="preserve">
<style type="text/css">
	.st0{fill:none;stroke:#000000;stroke-width:15;stroke-miterlimit:10;}
</style>
<path class="st0" d="M872.3,803.2h-721c-8.2,0-14.9-6.7-14.9-14.9V404.6c0-8.2,6.7-14.9,14.9-14.9h721c8.2,0,14.9,6.7,14.9,14.9
	v383.7C887.3,796.5,880.5,803.2,872.3,803.2z"/>
<path class="st0" d="M191.4,367.2v-46.1c0-8.2,6.7-14.9,14.9-14.9h611c8.2,0,14.9,6.7,14.9,14.9v46.1"/>
<path class="st0" d="M238.1,284.1V238c0-8.2,6.7-14.9,14.9-14.9h517.6c8.2,0,14.9,6.7,14.9,14.9v46.1"/>
<circle class="st0" cx="509.9" cy="593.4" r="82.4"/>
<circle class="st0" cx="340.3" cy="593" r="29.1"/>
<circle class="st0" cx="681.4" cy="593" r="29.1"/>
<path class="st0" d="M826.9,690.9c-25.8,0-46.7,21.8-46.7,48.8H244.1c0-26.9-20.9-48.8-46.7-48.8V501.3c25.8,0,46.7-21.9,46.7-48.8
	h536.1v3.4c0,26.9,20.9,48.8,46.7,48.8L826.9,690.9L826.9,690.9z"/>
</svg>
