<?xml version="1.0" encoding="utf-8"?>
<!-- Generator: Adobe Illustrator 24.0.0, SVG Export Plug-In . SVG Version: 6.00 Build 0)  -->
<svg version="1.1" id="Layer_1" xmlns="http://www.w3.org/2000/svg" xmlns:xlink="http://www.w3.org/1999/xlink" x="0px" y="0px"
	 viewBox="0 0 1024 1024" style="enable-background:new 0 0 1024 1024;" xml:space="preserve">
<style type="text/css">
	.st0{display:none;fill:#7F7F7F;}
	.st1{display:none;}
	.st2{display:inline;fill:none;stroke:#FFFFFF;stroke-width:10;stroke-miterlimit:10;}
	.st3{fill:none;stroke:#000000;stroke-width:15;stroke-miterlimit:10;}
</style>
<rect x="256" y="256" class="st0" width="512" height="512"/>
<g class="st1">
	<path class="st2" d="M445,400.8c0-67.8,30-91.8,67-91.8s67,25,67,91.8"/>
	<polygon class="st2" points="656,374 368,374 353,697 671,697 	"/>
</g>
<g class="st1">
	<line class="st2" x1="455" y1="536" x2="570" y2="536"/>
	<line class="st2" x1="512" y1="478.5" x2="512" y2="593.5"/>
</g>
<path class="st3" d="M408.9,286.5c149.3,0,298.8,0,448.1,0"/>
<path class="st3" d="M167,286.5c40.1,0,80.2,0,120.3,0"/>
<circle class="st3" cx="349.2" cy="287.1" r="60.8"/>
<path class="st3" d="M572.2,526c95,0,190,0,284.8,0"/>
<path class="st3" d="M167,526c94.6,0,189.2,0,283.8,0"/>
<circle class="st3" cx="512" cy="526.5" r="60.8"/>
<path class="st3" d="M764,773.2c31,0,61.9,0,93,0"/>
<path class="st3" d="M167,773.2c158.4,0,316.7,0,475.1,0"/>
<circle class="st3" cx="703.6" cy="773.7" r="60.8"/>
</svg>
