<?xml version="1.0" encoding="utf-8"?>
<!-- Generator: Adobe Illustrator 25.2.1, SVG Export Plug-In . SVG Version: 6.00 Build 0)  -->
<svg version="1.1" id="Layer_1" xmlns="http://www.w3.org/2000/svg" xmlns:xlink="http://www.w3.org/1999/xlink" x="0px" y="0px"
	 viewBox="0 0 1024 1024" style="enable-background:new 0 0 1024 1024;" xml:space="preserve">
<style type="text/css">
	.st0{fill:none;stroke:#000000;stroke-width:20;stroke-miterlimit:10;}
</style>
<path class="st0" d="M75,757V267c0-31.5,26.9-57.1,60-57.1h754c33.1,0,60,25.6,60,57.1v490c0,31.5-26.9,57.1-60,57.1H135
	C101.9,814,75,788.6,75,757z"/>
<g>
	<circle class="st0" cx="282.4" cy="401.7" r="41.6"/>
	<path class="st0" d="M207.9,527.5c0-46.6,33.3-84.3,74.4-84.3s74.4,37.7,74.4,84.3"/>
</g>
<path class="st0" d="M385.7,569.9H179c-14.9,0-26.9-12-26.9-26.9V315.1c0-14.9,12-26.9,26.9-26.9h206.7c14.9,0,26.9,12,26.9,26.9
	V543C412.6,557.9,400.6,569.9,385.7,569.9z"/>
<path class="st0" d="M847.1,416.1H512.2c-14.9,0-26.9-12-26.9-26.9v-74.1c0-14.9,12-26.9,26.9-26.9h334.9c14.9,0,26.9,12,26.9,26.9
	v74.1C874,404,862,416.1,847.1,416.1z"/>
<line class="st0" x1="143.2" y1="652.6" x2="882.5" y2="652.6"/>
<line class="st0" x1="143.2" y1="729.7" x2="882.5" y2="729.7"/>
<g>
	<path d="M642.8,500.7l-22.4,55.9h-11.7l-22.4-55.9h10.4c1.1,0,2,0.3,2.7,0.8c0.7,0.5,1.2,1.2,1.6,2l10.8,29.9
		c0.5,1.3,1,2.7,1.5,4.3c0.5,1.5,0.9,3.2,1.4,4.9c0.4-1.7,0.8-3.3,1.2-4.9s0.9-3,1.4-4.3l10.7-29.9c0.3-0.7,0.8-1.4,1.5-1.9
		s1.6-0.9,2.7-0.9H642.8z"/>
	<path d="M660.2,556.6h-13v-55.9h13V556.6z"/>
	<path d="M702,512.1c-0.4,0.6-0.8,1.1-1.2,1.4c-0.4,0.3-1,0.5-1.6,0.5c-0.6,0-1.2-0.2-1.9-0.6c-0.7-0.4-1.4-0.8-2.3-1.2
		c-0.9-0.5-1.8-0.9-2.9-1.2c-1.1-0.4-2.4-0.6-3.8-0.6c-2.4,0-4.2,0.5-5.4,1.6c-1.2,1-1.8,2.4-1.8,4.2c0,1.1,0.4,2.1,1.1,2.8
		c0.7,0.7,1.7,1.4,2.8,1.9c1.2,0.5,2.5,1,4,1.5c1.5,0.4,3,0.9,4.6,1.5c1.6,0.6,3.1,1.2,4.6,1.9c1.5,0.7,2.8,1.7,4,2.8
		c1.2,1.2,2.1,2.6,2.8,4.2c0.7,1.7,1.1,3.6,1.1,6c0,2.6-0.4,5-1.3,7.3s-2.2,4.2-3.9,5.9c-1.7,1.7-3.8,3-6.3,4
		c-2.5,1-5.3,1.4-8.5,1.4c-1.7,0-3.5-0.2-5.3-0.5c-1.8-0.4-3.5-0.9-5.2-1.5s-3.3-1.4-4.8-2.3s-2.8-1.9-3.9-3l3.8-6.1
		c0.3-0.4,0.7-0.8,1.2-1.1c0.5-0.3,1-0.4,1.6-0.4c0.8,0,1.5,0.2,2.3,0.7c0.8,0.5,1.7,1,2.6,1.6c1,0.6,2.1,1.1,3.4,1.6
		s2.8,0.7,4.5,0.7c2.4,0,4.2-0.5,5.5-1.6c1.3-1,2-2.7,2-4.9c0-1.3-0.4-2.4-1.1-3.2c-0.7-0.8-1.7-1.5-2.8-2s-2.5-1-4-1.4
		c-1.5-0.4-3-0.9-4.6-1.4c-1.6-0.5-3.1-1.1-4.6-1.8c-1.5-0.7-2.8-1.7-4-2.9s-2.1-2.7-2.8-4.5c-0.7-1.8-1.1-4-1.1-6.6
		c0-2.1,0.4-4.1,1.3-6.1c0.8-2,2.1-3.8,3.7-5.3s3.6-2.8,6-3.7c2.4-0.9,5.1-1.4,8.2-1.4c1.7,0,3.4,0.1,5,0.4c1.6,0.3,3.2,0.7,4.6,1.2
		c1.5,0.5,2.8,1.2,4.1,1.9s2.4,1.6,3.4,2.5L702,512.1z"/>
	<path d="M762.5,556.6h-10.1c-1.1,0-2-0.3-2.7-0.8c-0.7-0.5-1.2-1.2-1.6-2l-3.3-9.7h-21.3l-3.3,9.7c-0.3,0.7-0.8,1.4-1.5,1.9
		c-0.7,0.6-1.6,0.9-2.7,0.9h-10.1l21.6-55.9h13.3L762.5,556.6z M741.9,535.3l-5.2-15.3c-0.4-1-0.8-2.1-1.2-3.4
		c-0.4-1.3-0.9-2.7-1.3-4.3c-0.4,1.6-0.8,3-1.2,4.3c-0.4,1.3-0.8,2.5-1.2,3.5l-5.1,15.2H741.9z"/>
</g>
</svg>
